<svg xmlns="http://www.w3.org/2000/svg" viewBox="0 0 120 120" width="100%" height="100%">
  <!-- Bilkent Red Shield / Seal -->
  <defs>
    <linearGradient id="bilkentRed" x1="0" y1="0" x2="0" y2="1">
      <stop offset="0%" stop-color="#d3112d"/>
      <stop offset="100%" stop-color="#990011"/>
    </linearGradient>
  </defs>
  <!-- Shield Shape -->
  <path d="M 60 12 C 85 12 104 22 104 22 L 104 68 C 104 90 60 108 60 108 C 60 108 16 90 16 68 L 16 22 C 16 22 35 12 60 12 Z" fill="url(#bilkentRed)"/>
  <!-- Bilkent Emblem Inner Elements: Torch & Academic Symbol -->
  <!-- Outer Rim Gold/White -->
  <path d="M 60 18 C 80 18 96 26 96 26 L 96 66 C 96 82 60 98 60 98 C 60 98 24 82 24 66 L 24 26 C 24 26 40 18 60 18 Z" fill="none" stroke="#ffffff" stroke-width="2.5" opacity="0.9"/>
  <!-- Bilkent 'B' / Torch Silhouette -->
  <path d="M 50 32 L 68 32 C 74 32 78 35 78 39 C 78 43 75 45 70 46 C 76 47 80 50 80 55 C 80 61 74 64 67 64 L 50 64 Z M 57 38 L 57 45 L 66 45 C 69 45 71 43 71 41.5 C 71 40 69 38 66 38 Z M 57 51 L 57 58 L 67 58 C 70 58 72 56 72 54.5 C 72 53 70 51 67 51 Z" fill="#ffffff"/>
  <!-- 1984 Foundation Year Banner -->
  <text x="60" y="84" font-family="'Inter', sans-serif" font-weight="800" font-size="11" fill="#ffffff" text-anchor="middle" letter-spacing="1">1984</text>
  <text x="60" y="94" font-family="'Inter', sans-serif" font-weight="700" font-size="7" fill="#ffffff" text-anchor="middle" letter-spacing="0.5">BILKENT</text>
</svg>
